<?xml version="1.0" standalone="no"?>
<!DOCTYPE svg PUBLIC "-//W3C//DTD SVG 20010904//EN"
 "http://www.w3.org/TR/2001/REC-SVG-20010904/DTD/svg10.dtd">
<svg version="1.0" xmlns="http://www.w3.org/2000/svg"
 width="739.000000pt" height="268.000000pt" viewBox="0 0 739.000000 268.000000"
 preserveAspectRatio="xMidYMid meet">

<g transform="translate(0.000000,268.000000) scale(0.100000,-0.100000)"
fill="#000000" stroke="none">
<path d="M2062 2599 c-21 -6 -43 -24 -60 -49 l-27 -39 -595 -1 c-668 0 -631 4
-695 -74 -26 -33 -30 -46 -30 -99 1 -62 1 -62 179 -366 99 -168 181 -313 183
-322 3 -10 -18 -59 -47 -109 -29 -50 -50 -93 -47 -96 2 -3 16 -2 31 2 27 6 54
51 396 649 79 138 152 261 164 274 46 52 86 61 278 61 l176 0 32 -40 c40 -50
92 -68 149 -51 42 12 87 57 97 97 15 61 -23 135 -82 160 -38 16 -55 16 -102 3z
m98 -79 c41 -41 12 -120 -45 -120 -30 0 -75 41 -75 68 0 59 79 93 120 52z
m-755 -111 c7 -7 -226 -418 -237 -419 -20 -1 -209 330 -210 370 -2 60 4 61
233 58 114 -2 210 -6 214 -9z"/>
<path d="M1547 2133 c-14 -14 -6 -56 20 -101 14 -26 79 -137 143 -247 200
-341 322 -558 343 -604 30 -68 20 -101 -83 -281 -92 -159 -93 -160 -128 -160
-100 0 -165 -120 -112 -207 25 -42 68 -63 126 -63 41 0 51 5 85 39 38 38 44
56 39 121 -1 14 -8 35 -16 47 -13 21 3 52 268 510 154 268 290 508 300 532 35
77 4 171 -72 215 -33 20 -55 21 -415 26 l-379 5 -50 88 c-49 86 -56 94 -69 80z
m791 -479 c34 -23 27 -61 -28 -157 -68 -119 -161 -269 -165 -265 -11 12 -235
411 -235 418 0 14 41 17 230 19 144 1 179 -2 198 -15z m-435 -1016 c17 -23 19
-33 11 -55 -26 -74 -134 -59 -134 18 0 67 82 92 123 37z"/>
<path d="M3050 1941 c-71 -23 -122 -66 -156 -131 -13 -26 -19 -64 -22 -145 -3
-94 -1 -118 18 -167 41 -109 131 -158 290 -158 152 0 241 44 276 135 25 65 17
75 -61 75 -61 0 -66 -2 -75 -25 -16 -42 -66 -65 -141 -65 -75 0 -123 24 -149
75 -23 46 -20 191 5 232 27 45 77 67 150 67 72 0 120 -24 134 -66 10 -27 12
-28 80 -28 39 0 71 3 71 8 0 29 -26 88 -52 118 -55 63 -98 78 -228 81 -63 1
-126 -1 -140 -6z"/>
<path d="M3809 1937 c-126 -47 -179 -133 -179 -292 0 -194 89 -292 271 -303
202 -12 310 61 339 227 20 117 -5 239 -63 299 -58 61 -99 76 -222 79 -75 2
-122 -1 -146 -10z m219 -124 c48 -23 71 -78 72 -167 0 -129 -49 -186 -162
-186 -67 0 -116 24 -143 70 -16 27 -20 52 -20 115 1 111 24 152 102 181 43 16
100 11 151 -13z"/>
<path d="M4407 1943 c-4 -3 -7 -138 -7 -300 l0 -293 75 0 74 0 3 98 3 97 45 3
c25 1 50 -1 56 -5 6 -5 35 -50 64 -100 l52 -93 74 0 c41 0 74 2 74 4 0 3 -25
47 -55 100 l-56 96 45 42 c36 35 46 53 56 101 23 115 -23 220 -108 245 -42 13
-384 17 -395 5z m345 -130 c20 -18 25 -91 8 -124 -10 -17 -22 -19 -110 -19
l-100 0 0 80 0 80 92 0 c71 0 95 -4 110 -17z"/>
<path d="M5090 1650 l0 -300 245 0 246 0 -3 58 -3 57 -173 3 -173 2 3 58 3 57
128 3 127 3 0 53 c0 40 -4 55 -16 60 -9 3 -67 6 -130 6 l-114 0 0 60 0 60 173
2 172 3 0 55 0 55 -242 3 -243 2 0 -300z"/>
<path d="M5918 1940 c-51 -15 -108 -54 -132 -89 -39 -58 -51 -109 -50 -211 1
-76 5 -106 24 -147 45 -105 134 -153 281 -153 213 0 297 72 299 253 l0 67
-140 0 -140 0 0 -54 c0 -62 5 -66 81 -66 55 0 60 -10 25 -45 -28 -28 -77 -39
-152 -33 -92 8 -134 66 -134 185 0 82 26 145 67 166 91 47 217 20 244 -50 8
-21 15 -23 72 -23 35 0 66 2 69 5 3 3 1 24 -5 47 -15 60 -79 122 -146 142 -58
17 -215 21 -263 6z"/>
<path d="M6506 1938 c4 -7 57 -91 116 -186 l108 -174 0 -114 0 -114 70 0 70 0
0 113 0 113 106 169 c58 92 109 177 115 187 9 17 4 18 -65 18 l-75 0 -72 -115
c-39 -64 -76 -114 -80 -113 -5 2 -39 53 -77 113 l-69 110 -77 3 c-62 2 -76 0
-70 -10z"/>
<path d="M287 1882 c-15 -9 -37 -36 -48 -60 -27 -55 -19 -101 24 -148 25 -28
43 -37 82 -42 l50 -7 290 -502 c160 -276 299 -511 310 -523 51 -56 148 -68
219 -26 37 22 60 58 225 345 l184 321 108 0 c90 0 109 3 109 15 0 8 -11 22
-25 31 -22 15 -72 15 -528 9 -535 -8 -547 -7 -610 39 -16 11 -68 90 -119 179
l-90 158 16 33 c45 96 -19 196 -125 196 -24 0 -57 -8 -72 -18z m117 -63 c50
-39 24 -119 -39 -119 -95 0 -94 134 1 139 6 1 23 -8 38 -20z m846 -634 c0 -24
-164 -311 -198 -347 -25 -27 -56 -35 -78 -20 -20 13 -214 344 -214 366 0 3
110 6 245 6 135 0 245 -2 245 -5z"/>
<path d="M1334 1782 c-56 -27 -77 -74 -72 -158 7 -107 55 -149 168 -148 74 1
125 22 142 59 25 55 -27 75 -76 30 -35 -32 -102 -35 -134 -5 -29 27 -31 116
-4 150 25 31 102 33 134 2 24 -22 88 -31 88 -12 0 23 -24 58 -52 75 -46 27
-144 30 -194 7z"/>
</g>
</svg>
