<?xml version="1.0" standalone="no"?>
<!DOCTYPE svg PUBLIC "-//W3C//DTD SVG 20010904//EN"
 "http://www.w3.org/TR/2001/REC-SVG-20010904/DTD/svg10.dtd">
<svg version="1.0" xmlns="http://www.w3.org/2000/svg"
 width="212.000000pt" height="185.000000pt" viewBox="0 0 212.000000 185.000000"
 preserveAspectRatio="xMidYMid meet">

<g transform="translate(0.000000,185.000000) scale(0.100000,-0.100000)"
fill="#000000" stroke="none">
<path d="M1582 1717 c-12 -7 -29 -23 -38 -35 l-15 -22 -447 0 c-426 0 -449 -1
-479 -20 -59 -36 -79 -109 -47 -173 9 -18 73 -128 141 -245 l124 -214 -41 -70
c-23 -38 -39 -72 -37 -75 21 -20 60 38 244 354 168 291 206 350 234 365 28 15
58 18 168 18 l134 0 34 -35 c45 -47 97 -49 145 -6 27 24 33 36 33 71 0 76 -85
124 -153 87z m94 -62 c15 -23 15 -27 0 -50 -19 -29 -51 -32 -78 -8 -22 20 -23
46 -2 67 24 24 61 20 80 -9z m-569 -69 c5 -4 -173 -306 -180 -306 -9 0 -105
147 -136 207 -28 56 -27 91 2 103 17 7 304 4 314 -4z"/>
<path d="M1205 1370 c-7 -21 -7 -20 259 -479 107 -184 136 -243 136 -271 0
-27 -18 -68 -68 -155 -66 -116 -68 -118 -115 -132 -89 -26 -113 -116 -47 -176
83 -74 193 8 160 120 l-11 38 196 340 c273 471 265 453 227 524 -36 68 -53 71
-364 71 l-277 0 -41 70 c-22 39 -43 70 -45 70 -2 0 -7 -9 -10 -20z m596 -350
c32 -18 22 -52 -47 -166 -101 -168 -83 -169 -185 8 -75 131 -86 154 -71 160
28 11 281 9 303 -2z m-327 -756 c21 -20 20 -43 -1 -66 -39 -43 -109 4 -85 57
14 29 61 34 86 9z"/>
<path d="M249 1171 c-63 -63 -16 -171 75 -171 19 0 55 -57 243 -382 167 -290
228 -388 253 -405 46 -32 109 -31 147 1 16 14 90 131 164 260 l134 235 83 1
c45 0 82 4 82 8 0 30 -29 32 -426 32 -480 0 -433 -14 -536 162 -57 97 -67 121
-58 137 5 11 10 37 10 57 0 88 -107 128 -171 65z m116 -72 c0 -27 -5 -35 -27
-43 -59 -21 -94 63 -38 91 36 18 65 -4 65 -48z m615 -441 c0 -21 -128 -241
-151 -260 -39 -32 -65 -4 -153 168 -25 49 -46 92 -46 97 0 4 79 7 175 7 133 0
175 -3 175 -12z"/>
<path d="M1044 1118 c-32 -15 -49 -55 -48 -115 0 -44 5 -58 27 -80 22 -22 38
-28 89 -31 53 -3 67 -1 91 18 34 27 36 60 3 60 -13 0 -29 -7 -36 -15 -7 -9
-29 -15 -51 -15 -30 0 -42 5 -55 25 -18 27 -14 89 6 109 18 18 90 13 101 -7 6
-9 21 -17 34 -17 34 0 33 32 -1 59 -30 23 -121 28 -160 9z"/>
</g>
</svg>
